<svg viewBox="0 0 64 64" fill="none" xmlns="http://www.w3.org/2000/svg"
aria-labelledby="title" aria-describedby="desc" role="img" xmlns:xlink="http://www.w3.org/1999/xlink"
width="64" height="64">
  <title>yola-instagram-0002</title>
  <desc>A solid styled icon from Orion Icon Library.</desc>
  <path d="M18.818 0C8.488 0 0 8.477 0 18.818v26.364C0 55.512 8.477 64 18.818 64h26.364C55.512 64 64 55.523 64 45.182V18.818C64 8.488 55.523 0 45.182 0H18.818zm0 5.818h26.364c7.193 0 13 5.807 13 13v26.364c0 7.193-5.807 13-13 13H18.818c-7.193 0-13-5.807-13-13V18.818c0-7.193 5.807-13 13-13zm30.364 6.364a2.624 2.624 0 0 0-2.637 2.636 2.624 2.624 0 0 0 2.637 2.636 2.624 2.624 0 0 0 2.636-2.636 2.624 2.624 0 0 0-2.636-2.636zM32 14.546c-9.602 0-17.454 7.852-17.454 17.454S22.398 49.455 32 49.455 49.455 41.602 49.455 32c0-9.602-7.853-17.454-17.455-17.454zm0 5.818c6.466 0 11.636 5.17 11.636 11.636 0 6.466-5.17 11.636-11.636 11.636A11.586 11.586 0 0 1 20.364 32c0-6.466 5.17-11.636 11.636-11.636z"
  fill="#000000" data-name="layer1"></path>
</svg>