<svg width="170" height="70" viewBox="0 0 170 70" fill="none" xmlns="http://www.w3.org/2000/svg">
  <rect width="170" height="70" fill="white"/>
  <path d="M67.5802 42V29.436H69.6142V40.2H74.7262V42H67.5802ZM80.161 42.216C79.513 42.216 78.919 42.102 78.379 41.874C77.851 41.646 77.401 41.322 77.029 40.902C76.657 40.47 76.369 39.954 76.165 39.354C75.961 38.742 75.859 38.064 75.859 37.32C75.859 36.576 75.961 35.904 76.165 35.304C76.369 34.692 76.657 34.176 77.029 33.756C77.401 33.324 77.851 32.994 78.379 32.766C78.919 32.538 79.513 32.424 80.161 32.424C80.809 32.424 81.397 32.538 81.925 32.766C82.465 32.994 82.921 33.324 83.293 33.756C83.665 34.176 83.953 34.692 84.157 35.304C84.361 35.904 84.463 36.576 84.463 37.32C84.463 38.064 84.361 38.742 84.157 39.354C83.953 39.954 83.665 40.47 83.293 40.902C82.921 41.322 82.465 41.646 81.925 41.874C81.397 42.102 80.809 42.216 80.161 42.216ZM80.161 40.596C80.833 40.596 81.373 40.392 81.781 39.984C82.189 39.564 82.393 38.94 82.393 38.112V36.528C82.393 35.7 82.189 35.082 81.781 34.674C81.373 34.254 80.833 34.044 80.161 34.044C79.489 34.044 78.949 34.254 78.541 34.674C78.133 35.082 77.929 35.7 77.929 36.528V38.112C77.929 38.94 78.133 39.564 78.541 39.984C78.949 40.392 79.489 40.596 80.161 40.596ZM94.8571 42.882C94.8571 43.854 94.4851 44.586 93.7411 45.078C92.9971 45.57 91.7851 45.816 90.1051 45.816C89.3371 45.816 88.6831 45.762 88.1431 45.654C87.6151 45.558 87.1771 45.414 86.8291 45.222C86.4931 45.03 86.2471 44.796 86.0911 44.52C85.9351 44.244 85.8571 43.926 85.8571 43.566C85.8571 43.05 85.9951 42.648 86.2711 42.36C86.5591 42.072 86.9551 41.874 87.4591 41.766V41.568C86.7511 41.34 86.3971 40.86 86.3971 40.128C86.3971 39.648 86.5591 39.282 86.8831 39.03C87.2071 38.766 87.5971 38.58 88.0531 38.472V38.4C87.5011 38.136 87.0751 37.77 86.7751 37.302C86.4871 36.822 86.3431 36.264 86.3431 35.628C86.3431 34.668 86.6611 33.894 87.2971 33.306C87.9451 32.718 88.8691 32.424 90.0691 32.424C90.7291 32.424 91.2931 32.52 91.7611 32.712V32.46C91.7611 32.04 91.8571 31.716 92.0491 31.488C92.2531 31.248 92.5651 31.128 92.9851 31.128H94.4251V32.712H92.5171V33.09C92.9371 33.366 93.2611 33.726 93.4891 34.17C93.7171 34.602 93.8311 35.088 93.8311 35.628C93.8311 36.576 93.5071 37.344 92.8591 37.932C92.2111 38.508 91.2871 38.796 90.0871 38.796C89.6311 38.796 89.2231 38.748 88.8631 38.652C88.6231 38.736 88.4131 38.856 88.2331 39.012C88.0531 39.156 87.9631 39.348 87.9631 39.588C87.9631 39.84 88.0771 40.02 88.3051 40.128C88.5331 40.236 88.8571 40.29 89.2771 40.29H91.5811C92.7331 40.29 93.5671 40.524 94.0831 40.992C94.5991 41.448 94.8571 42.078 94.8571 42.882ZM93.0211 43.098C93.0211 42.774 92.8951 42.516 92.6431 42.324C92.4031 42.132 91.9591 42.036 91.3111 42.036H88.1431C87.7111 42.288 87.4951 42.648 87.4951 43.116C87.4951 43.5 87.6451 43.806 87.9451 44.034C88.2571 44.274 88.7791 44.394 89.5111 44.394H90.7351C92.2591 44.394 93.0211 43.962 93.0211 43.098ZM90.0871 37.374C90.6631 37.374 91.1071 37.248 91.4191 36.996C91.7431 36.732 91.9051 36.33 91.9051 35.79V35.43C91.9051 34.89 91.7431 34.494 91.4191 34.242C91.1071 33.978 90.6631 33.846 90.0871 33.846C89.5111 33.846 89.0611 33.978 88.7371 34.242C88.4251 34.494 88.2691 34.89 88.2691 35.43V35.79C88.2691 36.33 88.4251 36.732 88.7371 36.996C89.0611 37.248 89.5111 37.374 90.0871 37.374ZM99.8836 42.216C99.2356 42.216 98.6416 42.102 98.1016 41.874C97.5736 41.646 97.1236 41.322 96.7516 40.902C96.3796 40.47 96.0916 39.954 95.8876 39.354C95.6836 38.742 95.5816 38.064 95.5816 37.32C95.5816 36.576 95.6836 35.904 95.8876 35.304C96.0916 34.692 96.3796 34.176 96.7516 33.756C97.1236 33.324 97.5736 32.994 98.1016 32.766C98.6416 32.538 99.2356 32.424 99.8836 32.424C100.532 32.424 101.12 32.538 101.648 32.766C102.188 32.994 102.644 33.324 103.016 33.756C103.388 34.176 103.676 34.692 103.88 35.304C104.084 35.904 104.186 36.576 104.186 37.32C104.186 38.064 104.084 38.742 103.88 39.354C103.676 39.954 103.388 40.47 103.016 40.902C102.644 41.322 102.188 41.646 101.648 41.874C101.12 42.102 100.532 42.216 99.8836 42.216ZM99.8836 40.596C100.556 40.596 101.096 40.392 101.504 39.984C101.912 39.564 102.116 38.94 102.116 38.112V36.528C102.116 35.7 101.912 35.082 101.504 34.674C101.096 34.254 100.556 34.044 99.8836 34.044C99.2116 34.044 98.6716 34.254 98.2636 34.674C97.8556 35.082 97.6516 35.7 97.6516 36.528V38.112C97.6516 38.94 97.8556 39.564 98.2636 39.984C98.6716 40.392 99.2116 40.596 99.8836 40.596Z" fill="#B0B8BF"/>
</svg>
